<svg width="15" height="16" viewBox="0 0 15 16" fill="none" xmlns="http://www.w3.org/2000/svg">
<path d="M1.5064 15.9294C1.08546 15.9294 0.72916 15.7836 0.437496 15.4919C0.145832 15.2003 0 14.844 0 14.423V3.26923C0 2.84829 0.145832 2.49199 0.437496 2.20032C0.72916 1.90866 1.08546 1.76283 1.5064 1.76283H2.66027V0H3.94229V1.76283H10.2564V0H11.5063V1.76283H12.6602C13.0811 1.76283 13.4374 1.90866 13.7291 2.20032C14.0208 2.49199 14.1666 2.84829 14.1666 3.26923V14.423C14.1666 14.844 14.0208 15.2003 13.7291 15.4919C13.4374 15.7836 13.0811 15.9294 12.6602 15.9294H1.5064ZM1.5064 14.6795H12.6602C12.7243 14.6795 12.7831 14.6528 12.8365 14.5993C12.8899 14.5459 12.9166 14.4871 12.9166 14.423V6.60256H1.24997V14.423C1.24997 14.4871 1.27668 14.5459 1.3301 14.5993C1.38353 14.6528 1.44229 14.6795 1.5064 14.6795ZM1.24997 5.35259H12.9166V3.26923C12.9166 3.20512 12.8899 3.14635 12.8365 3.09293C12.7831 3.03951 12.7243 3.0128 12.6602 3.0128H1.5064C1.44229 3.0128 1.38353 3.03951 1.3301 3.09293C1.27668 3.14635 1.24997 3.20512 1.24997 3.26923V5.35259ZM1.24997 5.35259V3.26923C1.24997 3.20512 1.24997 3.14635 1.24997 3.09293C1.24997 3.03951 1.24997 3.0128 1.24997 3.0128C1.24997 3.0128 1.24997 3.03951 1.24997 3.09293C1.24997 3.14635 1.24997 3.20512 1.24997 3.26923V5.35259Z" fill="#0A0F1A"/>
</svg>
