<svg width="19" height="24" viewBox="0 0 19 24" fill="none" xmlns="http://www.w3.org/2000/svg">
<path d="M8.06245 15.8316L14.6922 9.20187L13.3557 7.86537L8.06245 13.1586L5.41341 10.5096L4.07691 11.8461L8.06245 15.8316ZM9.37495 23.6778C6.67144 22.9406 4.43307 21.3493 2.65984 18.9038C0.886614 16.4583 0 13.7243 0 10.7019V3.5096L9.37495 0L18.7499 3.5096V10.7019C18.7499 13.7243 17.8633 16.4583 16.0901 18.9038C14.3168 21.3493 12.0785 22.9406 9.37495 23.6778ZM9.37495 21.7019C11.5416 21.0144 13.3333 19.6394 14.75 17.5769C16.1666 15.5144 16.875 13.2227 16.875 10.7019V4.79562L9.37495 1.99514L1.87495 4.79562V10.7019C1.87495 13.2227 2.58329 15.5144 3.99995 17.5769C5.41662 19.6394 7.20829 21.0144 9.37495 21.7019Z" fill="#E4C285"/>
</svg>
