<svg width="16" height="16" viewBox="0 0 16 16" fill="none" xmlns="http://www.w3.org/2000/svg">
<path d="M7.91803 15.8333C6.82309 15.8333 5.79389 15.6255 4.83044 15.2099C3.86699 14.7944 3.02893 14.2304 2.31624 13.5181C1.60355 12.8057 1.03934 11.968 0.623602 11.005C0.207867 10.042 0 9.01297 0 7.91803C0 6.82309 0.207775 5.79389 0.623325 4.83044C1.03888 3.86699 1.60284 3.02893 2.31521 2.31624C3.02758 1.60355 3.86528 1.03934 4.8283 0.623603C5.79132 0.207868 6.8203 0 7.91524 0C9.01018 0 10.0394 0.207775 11.0028 0.623325C11.9663 1.03888 12.8043 1.60284 13.517 2.31521C14.2297 3.02758 14.7939 3.86528 15.2097 4.8283C15.6254 5.79132 15.8333 6.8203 15.8333 7.91524C15.8333 9.01018 15.6255 10.0394 15.2099 11.0028C14.7944 11.9663 14.2304 12.8043 13.5181 13.517C12.8057 14.2297 11.968 14.7939 11.005 15.2097C10.042 15.6254 9.01297 15.8333 7.91803 15.8333ZM7.0833 14.5416V12.9166C6.62497 12.9166 6.23261 12.7534 5.90622 12.4271C5.57983 12.1007 5.41664 11.7083 5.41664 11.25V10.4166L1.41664 6.41664C1.37497 6.66664 1.33678 6.91664 1.30205 7.16664C1.26733 7.41664 1.24997 7.66664 1.24997 7.91664C1.24997 9.59719 1.80205 11.0694 2.90622 12.3333C4.01039 13.5972 5.40275 14.3333 7.0833 14.5416ZM12.8333 12.4166C13.4027 11.7916 13.8368 11.0937 14.1354 10.3229C14.434 9.55205 14.5833 8.74897 14.5833 7.91363C14.5833 6.54925 14.2062 5.3032 13.4519 4.1755C12.6976 3.04779 11.6859 2.23394 10.4166 1.73394V2.0833C10.4166 2.54164 10.2534 2.934 9.92705 3.26039C9.60066 3.58678 9.2083 3.74997 8.74997 3.74997H7.0833V5.41664C7.0833 5.65275 7.00344 5.85066 6.84372 6.01039C6.684 6.17011 6.48608 6.24997 6.24997 6.24997H4.5833V7.91664H9.5833C9.81941 7.91664 10.0173 7.9965 10.1771 8.15622C10.3368 8.31594 10.4166 8.51386 10.4166 8.74997V11.25H11.25C11.6111 11.25 11.9375 11.3576 12.2291 11.5729C12.5208 11.7882 12.7222 12.0694 12.8333 12.4166Z" fill="#C5A059"/>
</svg>
