<svg width="42" height="17" viewBox="0 0 42 17" fill="none" xmlns="http://www.w3.org/2000/svg">
<path d="M0 7.49996V0H7.49996V7.49996H0ZM0 16.9999V9.49996H7.49996V16.9999H0ZM9.49996 7.49996V0H16.9999V7.49996H9.49996ZM9.49996 16.9999V9.49996H16.9999V16.9999H9.49996ZM1.49996 6H6V1.49996H1.49996V6ZM10.9999 6H15.5V1.49996H10.9999V6ZM10.9999 15.5H15.5V10.9999H10.9999V15.5ZM1.49996 15.5H6V10.9999H1.49996V15.5Z" fill="#0A0F1A"/>
<path d="M26.7975 7.31726C26.2924 7.31726 25.8649 7.14226 25.5149 6.79226C25.1649 6.44227 24.9899 6.0147 24.9899 5.50958V1.80768C24.9899 1.30255 25.1649 0.874992 25.5149 0.524995C25.8649 0.174998 26.2924 0 26.7975 0H40.1821C40.6872 0 41.1148 0.174998 41.4648 0.524995C41.8148 0.874992 41.9898 1.30255 41.9898 1.80768V5.50958C41.9898 6.0147 41.8148 6.44227 41.4648 6.79226C41.1148 7.14226 40.6872 7.31726 40.1821 7.31726H26.7975ZM26.7975 5.81729H40.1821C40.2719 5.81729 40.3456 5.78845 40.4033 5.73075C40.461 5.67305 40.4898 5.59933 40.4898 5.50958V1.80768C40.4898 1.71793 40.461 1.6442 40.4033 1.58651C40.3456 1.52881 40.2719 1.49996 40.1821 1.49996H26.7975C26.7078 1.49996 26.6341 1.52881 26.5764 1.58651C26.5187 1.6442 26.4898 1.71793 26.4898 1.80768V5.50958C26.4898 5.59933 26.5187 5.67305 26.5764 5.73075C26.6341 5.78845 26.7078 5.81729 26.7975 5.81729ZM26.7975 16.9999C26.2924 16.9999 25.8649 16.8249 25.5149 16.4749C25.1649 16.1249 24.9899 15.6974 24.9899 15.1922V11.5C24.9899 10.9948 25.1649 10.5673 25.5149 10.2173C25.8649 9.86728 26.2924 9.69229 26.7975 9.69229H40.1821C40.6872 9.69229 41.1148 9.86728 41.4648 10.2173C41.8148 10.5673 41.9898 10.9948 41.9898 11.5V15.1922C41.9898 15.6974 41.8148 16.1249 41.4648 16.4749C41.1148 16.8249 40.6872 16.9999 40.1821 16.9999H26.7975ZM26.7975 15.5H40.1821C40.2719 15.5 40.3456 15.4711 40.4033 15.4134C40.461 15.3557 40.4898 15.282 40.4898 15.1922V11.5C40.4898 11.4102 40.461 11.3365 40.4033 11.2788C40.3456 11.2211 40.2719 11.1922 40.1821 11.1922H26.7975C26.7078 11.1922 26.6341 11.2211 26.5764 11.2788C26.5187 11.3365 26.4898 11.4102 26.4898 11.5V15.1922C26.4898 15.282 26.5187 15.3557 26.5764 15.4134C26.6341 15.4711 26.7078 15.5 26.7975 15.5ZM26.4898 5.81729C26.4898 5.81729 26.4898 5.78845 26.4898 5.73075C26.4898 5.67305 26.4898 5.59933 26.4898 5.50958V1.80768C26.4898 1.71793 26.4898 1.6442 26.4898 1.58651C26.4898 1.52881 26.4898 1.49996 26.4898 1.49996C26.4898 1.49996 26.4898 1.52881 26.4898 1.58651C26.4898 1.6442 26.4898 1.71793 26.4898 1.80768V5.50958C26.4898 5.59933 26.4898 5.67305 26.4898 5.73075C26.4898 5.78845 26.4898 5.81729 26.4898 5.81729ZM26.4898 15.5C26.4898 15.5 26.4898 15.4711 26.4898 15.4134C26.4898 15.3557 26.4898 15.282 26.4898 15.1922V11.5C26.4898 11.4102 26.4898 11.3365 26.4898 11.2788C26.4898 11.2211 26.4898 11.1922 26.4898 11.1922C26.4898 11.1922 26.4898 11.2211 26.4898 11.2788C26.4898 11.3365 26.4898 11.4102 26.4898 11.5V15.1922C26.4898 15.282 26.4898 15.3557 26.4898 15.4134C26.4898 15.4711 26.4898 15.5 26.4898 15.5Z" fill="#909096"/>
</svg>
