<svg width="39" height="19" viewBox="0 0 39 19" fill="none" xmlns="http://www.w3.org/2000/svg">
<path d="M25.8077 18.9999C25.3026 18.9999 24.875 18.8249 24.525 18.4749C24.175 18.1249 24 17.6974 24 17.1922V5.80768C24 5.30255 24.175 4.87499 24.525 4.525C24.875 4.175 25.3026 4 25.8077 4H27.75V3.74998C27.75 2.71409 28.116 1.83012 28.8481 1.09807C29.5801 0.366024 30.4641 0 31.5 0C32.5359 0 33.4198 0.366024 34.1519 1.09807C34.8839 1.83012 35.2499 2.71409 35.2499 3.74998V4H37.1922C37.6974 4 38.1249 4.175 38.4749 4.525C38.8249 4.87499 38.9999 5.30255 38.9999 5.80768V17.1922C38.9999 17.6974 38.8249 18.1249 38.4749 18.4749C38.1249 18.8249 37.6974 18.9999 37.1922 18.9999H25.8077ZM25.8077 17.5H37.1922C37.2692 17.5 37.3397 17.4679 37.4038 17.4038C37.4679 17.3397 37.5 17.2692 37.5 17.1922V5.80768C37.5 5.73075 37.4679 5.66023 37.4038 5.59612C37.3397 5.53202 37.2692 5.49996 37.1922 5.49996H35.2499V7.74998C35.2499 7.9628 35.1782 8.141 35.0346 8.28458C34.891 8.42817 34.7128 8.49996 34.5 8.49996C34.2871 8.49996 34.1089 8.42817 33.9654 8.28458C33.8218 8.141 33.75 7.9628 33.75 7.74998V5.49996H29.2499V7.74998C29.2499 7.9628 29.1782 8.141 29.0346 8.28458C28.891 8.42817 28.7128 8.49996 28.5 8.49996C28.2871 8.49996 28.1089 8.42817 27.9654 8.28458C27.8218 8.141 27.75 7.9628 27.75 7.74998V5.49996H25.8077C25.7307 5.49996 25.6602 5.53202 25.5961 5.59612C25.532 5.66023 25.5 5.73075 25.5 5.80768V17.1922C25.5 17.2692 25.532 17.3397 25.5961 17.4038C25.6602 17.4679 25.7307 17.5 25.8077 17.5ZM29.2499 4H33.75V3.74998C33.75 3.12305 33.5317 2.59132 33.0952 2.15478C32.6586 1.71823 32.1269 1.49996 31.5 1.49996C30.873 1.49996 30.3413 1.71823 29.9048 2.15478C29.4682 2.59132 29.2499 3.12305 29.2499 3.74998V4ZM25.5 17.5C25.5 17.5 25.5 17.4679 25.5 17.4038C25.5 17.3397 25.5 17.2692 25.5 17.1922V5.80768C25.5 5.73075 25.5 5.66023 25.5 5.59612C25.5 5.53202 25.5 5.49996 25.5 5.49996C25.5 5.49996 25.5 5.53202 25.5 5.59612C25.5 5.66023 25.5 5.73075 25.5 5.80768V17.1922C25.5 17.2692 25.5 17.3397 25.5 17.4038C25.5 17.4679 25.5 17.5 25.5 17.5Z" fill="#C5A059"/>
</svg>
