<svg width="116" height="32" viewBox="0 0 116 32" fill="none" xmlns="http://www.w3.org/2000/svg">
<path d="M17.0625 8.28516V8.90625L15.3398 9.21094L9.02344 24.3633H8.42578L2.03906 9.21094L0.269531 8.90625V8.28516H6.62109V8.90625L4.51172 9.21094L9.26953 20.7773L14.0156 9.21094L11.9531 8.90625V8.28516H17.0625ZM23.1656 16.125C23.1656 17.2188 23.2477 18.207 23.4117 19.0898C23.5758 19.9727 23.857 20.7266 24.2555 21.3516C24.6539 21.9766 25.1891 22.459 25.8609 22.7988C26.5328 23.1387 27.3766 23.3086 28.3922 23.3086C29.4078 23.3086 30.2516 23.1387 30.9234 22.7988C31.5953 22.459 32.1324 21.9766 32.5348 21.3516C32.9371 20.7266 33.2203 19.9727 33.3844 19.0898C33.5484 18.207 33.6305 17.2188 33.6305 16.125C33.6305 15.0391 33.5484 14.0586 33.3844 13.1836C33.2203 12.3086 32.9371 11.5645 32.5348 10.9512C32.1324 10.3379 31.5953 9.86719 30.9234 9.53906C30.2516 9.21094 29.4078 9.04688 28.3922 9.04688C27.3766 9.04688 26.5328 9.21094 25.8609 9.53906C25.1891 9.86719 24.6539 10.3379 24.2555 10.9512C23.857 11.5645 23.5758 12.3086 23.4117 13.1836C23.2477 14.0586 23.1656 15.0391 23.1656 16.125ZM20.7164 16.125C20.7164 14.7344 20.8863 13.5352 21.2262 12.5273C21.566 11.5195 22.0602 10.6875 22.7086 10.0312C23.357 9.375 24.1578 8.89062 25.1109 8.57812C26.0641 8.26562 27.1578 8.10938 28.3922 8.10938C29.5875 8.10938 30.6598 8.26562 31.609 8.57812C32.5582 8.89062 33.3648 9.375 34.0289 10.0312C34.693 10.6875 35.2008 11.5195 35.5523 12.5273C35.9039 13.5352 36.0797 14.7344 36.0797 16.125C36.0797 17.5156 35.9039 18.7207 35.5523 19.7402C35.2008 20.7598 34.693 21.6016 34.0289 22.2656C33.3648 22.9297 32.5582 23.4238 31.609 23.748C30.6598 24.0723 29.5875 24.2344 28.3922 24.2344C27.1969 24.2344 26.1266 24.0723 25.1812 23.748C24.2359 23.4238 23.4312 22.9297 22.7672 22.2656C22.1031 21.6016 21.5953 20.7598 21.2437 19.7402C20.8922 18.7207 20.7164 17.5156 20.7164 16.125ZM49.2844 17.8125V23.0625L51.7805 23.3789V24H44.5266V23.3789L47.0227 23.0625V17.8828L41.5031 9.21094L39.7336 8.90625V8.28516H46.3781V8.90625L44.2687 9.21094L48.7805 16.4648L53.0695 9.21094L51.0773 8.90625V8.28516H56.1867V8.90625L54.4641 9.21094L49.2844 17.8125ZM61.9383 23.3789V24H56.7703V23.3789L58.5516 23.0625L63.907 8.15625H66.1336L71.7 23.0625L73.6922 23.3789V24H67.0477V23.3789L69.157 23.0625L67.5984 18.5273H61.4109L59.8289 23.0625L61.9383 23.3789ZM64.4578 9.84375L61.7625 17.4727H67.2352L64.4578 9.84375ZM91.3148 23.1797C90.4086 23.4766 89.4672 23.7266 88.4906 23.9297C87.5141 24.1328 86.4633 24.2344 85.3383 24.2344C84.0961 24.2344 82.977 24.0645 81.9809 23.7246C80.9848 23.3848 80.1352 22.8809 79.432 22.2129C78.7289 21.5449 78.1898 20.7188 77.8148 19.7344C77.4398 18.75 77.2523 17.6133 77.2523 16.3242C77.2523 13.5742 77.9418 11.5176 79.3207 10.1543C80.6996 8.79102 82.7211 8.10938 85.3852 8.10938C86.4008 8.10938 87.3676 8.17188 88.2855 8.29688C89.2035 8.42188 90.0766 8.59375 90.9047 8.8125V12.1875H90.1195L89.8031 10.2422C89.2641 9.85938 88.6176 9.56445 87.8637 9.35742C87.1098 9.15039 86.3148 9.04688 85.4789 9.04688C84.5648 9.04688 83.7504 9.17383 83.0355 9.42773C82.3207 9.68164 81.7172 10.0938 81.225 10.6641C80.7328 11.2344 80.3559 11.9824 80.0941 12.9082C79.8324 13.834 79.7016 14.9648 79.7016 16.3008C79.7016 17.6523 79.8539 18.7793 80.1586 19.6816C80.4633 20.584 80.8754 21.3047 81.3949 21.8438C81.9145 22.3828 82.516 22.7656 83.1996 22.9922C83.8832 23.2188 84.6039 23.332 85.3617 23.332C85.7445 23.332 86.1254 23.3066 86.5043 23.2559C86.8832 23.2051 87.2387 23.1406 87.5707 23.0625C87.9027 22.9844 88.1977 22.8984 88.4555 22.8047C88.7133 22.7109 88.9164 22.6211 89.0648 22.5352V18.0703L87.0492 17.7656V17.1328H92.85V17.7656L91.3148 18.0703V23.1797ZM99.4336 16.125C99.4336 17.2188 99.5156 18.207 99.6797 19.0898C99.8438 19.9727 100.125 20.7266 100.523 21.3516C100.922 21.9766 101.457 22.459 102.129 22.7988C102.801 23.1387 103.645 23.3086 104.66 23.3086C105.676 23.3086 106.52 23.1387 107.191 22.7988C107.863 22.459 108.4 21.9766 108.803 21.3516C109.205 20.7266 109.488 19.9727 109.652 19.0898C109.816 18.207 109.898 17.2188 109.898 16.125C109.898 15.0391 109.816 14.0586 109.652 13.1836C109.488 12.3086 109.205 11.5645 108.803 10.9512C108.4 10.3379 107.863 9.86719 107.191 9.53906C106.52 9.21094 105.676 9.04688 104.66 9.04688C103.645 9.04688 102.801 9.21094 102.129 9.53906C101.457 9.86719 100.922 10.3379 100.523 10.9512C100.125 11.5645 99.8438 12.3086 99.6797 13.1836C99.5156 14.0586 99.4336 15.0391 99.4336 16.125ZM96.9844 16.125C96.9844 14.7344 97.1543 13.5352 97.4941 12.5273C97.834 11.5195 98.3281 10.6875 98.9766 10.0312C99.625 9.375 100.426 8.89062 101.379 8.57812C102.332 8.26562 103.426 8.10938 104.66 8.10938C105.855 8.10938 106.928 8.26562 107.877 8.57812C108.826 8.89062 109.633 9.375 110.297 10.0312C110.961 10.6875 111.469 11.5195 111.82 12.5273C112.172 13.5352 112.348 14.7344 112.348 16.125C112.348 17.5156 112.172 18.7207 111.82 19.7402C111.469 20.7598 110.961 21.6016 110.297 22.2656C109.633 22.9297 108.826 23.4238 107.877 23.748C106.928 24.0723 105.855 24.2344 104.66 24.2344C103.465 24.2344 102.395 24.0723 101.449 23.748C100.504 23.4238 99.6992 22.9297 99.0352 22.2656C98.3711 21.6016 97.8633 20.7598 97.5117 19.7402C97.1602 18.7207 96.9844 17.5156 96.9844 16.125Z" fill="#C5A059"/>
</svg>
