<svg width="10" height="7" viewBox="0 0 10 7" fill="none" xmlns="http://www.w3.org/2000/svg">
<path d="M1.5 7H1L0.675 6H0V3.4875C0 3.2125 0.0979166 2.97917 0.29375 2.7875C0.489583 2.59583 0.725 2.5 1 2.5V1C1 0.725 1.09792 0.489583 1.29375 0.29375C1.48958 0.0979166 1.725 0 2 0H8C8.275 0 8.51042 0.0979166 8.70625 0.29375C8.90208 0.489583 9 0.725 9 1V2.5C9.275 2.5 9.51042 2.59792 9.70625 2.79375C9.90208 2.98958 10 3.225 10 3.5V6H9.325L9 7H8.5L8.175 6H1.825L1.5 7ZM5.5 2.5H8V1H5.5V2.5ZM2 2.5H4.5V1H2V2.5ZM1 5H9V3.5H1V5ZM9 5H1H9Z" fill="#C6C6CC"/>
</svg>
