<svg width="10" height="9" viewBox="0 0 10 9" fill="none" xmlns="http://www.w3.org/2000/svg">
<path d="M0 9V8C0.316667 8 0.554167 7.91667 0.7125 7.75C0.870833 7.58333 1.18333 7.5 1.65 7.5C2.11667 7.5 2.4375 7.58333 2.6125 7.75C2.7875 7.91667 3.025 8 3.325 8C3.625 8 3.8625 7.91667 4.0375 7.75C4.2125 7.58333 4.53333 7.5 5 7.5C5.46667 7.5 5.7875 7.58333 5.9625 7.75C6.1375 7.91667 6.375 8 6.675 8C6.975 8 7.2125 7.91667 7.3875 7.75C7.5625 7.58333 7.88333 7.5 8.35 7.5C8.81667 7.5 9.12917 7.58333 9.2875 7.75C9.44583 7.91667 9.68333 8 10 8V9C9.50833 9 9.18542 8.91667 9.03125 8.75C8.87708 8.58333 8.65 8.5 8.35 8.5C8.05 8.5 7.8125 8.58333 7.6375 8.75C7.4625 8.91667 7.14167 9 6.675 9C6.20833 9 5.8875 8.91667 5.7125 8.75C5.5375 8.58333 5.3 8.5 5 8.5C4.7 8.5 4.4625 8.58333 4.2875 8.75C4.1125 8.91667 3.79167 9 3.325 9C2.85833 9 2.5375 8.91667 2.3625 8.75C2.1875 8.58333 1.95 8.5 1.65 8.5C1.35 8.5 1.12292 8.58333 0.96875 8.75C0.814583 8.91667 0.491667 9 0 9ZM0 6.75V5.75C0.316667 5.75 0.554167 5.66667 0.7125 5.5C0.870833 5.33333 1.18333 5.25 1.65 5.25C2.11667 5.25 2.43958 5.33333 2.61875 5.5C2.79792 5.66667 3.03333 5.75 3.325 5.75C3.625 5.75 3.8625 5.66667 4.0375 5.5C4.2125 5.33333 4.53333 5.25 5 5.25C5.46667 5.25 5.7875 5.33333 5.9625 5.5C6.1375 5.66667 6.375 5.75 6.675 5.75C6.975 5.75 7.2125 5.66667 7.3875 5.5C7.5625 5.33333 7.88333 5.25 8.35 5.25C8.81667 5.25 9.12917 5.33333 9.2875 5.5C9.44583 5.66667 9.68333 5.75 10 5.75V6.75C9.50833 6.75 9.18542 6.66667 9.03125 6.5C8.87708 6.33333 8.65 6.25 8.35 6.25C8.05 6.25 7.81875 6.33333 7.65625 6.5C7.49375 6.66667 7.16667 6.75 6.675 6.75C6.2 6.75 5.87708 6.66667 5.70625 6.5C5.53542 6.33333 5.3 6.25 5 6.25C4.68333 6.25 4.44792 6.33333 4.29375 6.5C4.13958 6.66667 3.81667 6.75 3.325 6.75C2.83333 6.75 2.50625 6.66667 2.34375 6.5C2.18125 6.33333 1.95 6.25 1.65 6.25C1.35 6.25 1.12292 6.33333 0.96875 6.5C0.814583 6.66667 0.491667 6.75 0 6.75ZM2.45 4.2L4.1125 2.5375L3.6125 2.0375C3.3375 1.7625 3.04583 1.5625 2.7375 1.4375C2.42917 1.3125 2.05 1.25 1.6 1.25V0C2.225 0 2.74167 0.06875 3.15 0.20625C3.55833 0.34375 3.95833 0.608333 4.35 1L7.55 4.2C7.40833 4.29167 7.27083 4.36458 7.1375 4.41875C7.00417 4.47292 6.85 4.5 6.675 4.5C6.375 4.5 6.1375 4.41667 5.9625 4.25C5.7875 4.08333 5.46667 4 5 4C4.53333 4 4.2125 4.08333 4.0375 4.25C3.8625 4.41667 3.625 4.5 3.325 4.5C3.15 4.5 2.99583 4.47292 2.8625 4.41875C2.72917 4.36458 2.59167 4.29167 2.45 4.2ZM7.35 0C7.7 0 7.99583 0.122917 8.2375 0.36875C8.47917 0.614583 8.6 0.908333 8.6 1.25C8.6 1.6 8.47917 1.89583 8.2375 2.1375C7.99583 2.37917 7.7 2.5 7.35 2.5C7 2.5 6.70417 2.37917 6.4625 2.1375C6.22083 1.89583 6.1 1.6 6.1 1.25C6.1 0.908333 6.22083 0.614583 6.4625 0.36875C6.70417 0.122917 7 0 7.35 0Z" fill="#C6C6CC"/>
</svg>
