<svg width="10" height="11" viewBox="0 0 10 11" fill="none" xmlns="http://www.w3.org/2000/svg">
<path d="M0.5 6.25L4.5 0.5V6.25H0.5ZM2.4125 5.25H3.5V3.6875L2.4125 5.25ZM5.25 6.25C5.35 6.01667 5.45833 5.60833 5.575 5.025C5.69167 4.44167 5.75 3.85 5.75 3.25C5.75 2.65 5.69375 2.03333 5.58125 1.4C5.46875 0.766667 5.35833 0.3 5.25 0C5.75833 0.15 6.26458 0.429167 6.76875 0.8375C7.27292 1.24583 7.72708 1.73333 8.13125 2.3C8.53542 2.86667 8.86458 3.48958 9.11875 4.16875C9.37292 4.84792 9.5 5.54167 9.5 6.25H5.25ZM6.55 5.25H8.4C8.25833 4.60833 8.02708 4.02083 7.70625 3.4875C7.38542 2.95417 7.04583 2.5 6.6875 2.125C6.70417 2.3 6.71875 2.48125 6.73125 2.66875C6.74375 2.85625 6.75 3.05 6.75 3.25C6.75 3.64167 6.73125 4.00417 6.69375 4.3375C6.65625 4.67083 6.60833 4.975 6.55 5.25ZM3.5 9C3.2 9 2.92083 8.92917 2.6625 8.7875C2.40417 8.64583 2.18333 8.46667 2 8.25C1.88333 8.375 1.75625 8.49167 1.61875 8.6C1.48125 8.70833 1.32917 8.79583 1.1625 8.8625C0.870833 8.64583 0.622917 8.37708 0.41875 8.05625C0.214583 7.73542 0.075 7.38333 0 7H10C9.925 7.38333 9.78542 7.73542 9.58125 8.05625C9.37708 8.37708 9.12917 8.64583 8.8375 8.8625C8.67083 8.79583 8.51875 8.70833 8.38125 8.6C8.24375 8.49167 8.11667 8.375 8 8.25C7.80833 8.46667 7.58542 8.64583 7.33125 8.7875C7.07708 8.92917 6.8 9 6.5 9C6.2 9 5.92083 8.92917 5.6625 8.7875C5.40417 8.64583 5.18333 8.46667 5 8.25C4.81667 8.46667 4.59583 8.64583 4.3375 8.7875C4.07917 8.92917 3.8 9 3.5 9ZM0 11V10H0.5C0.766667 10 1.02708 9.95833 1.28125 9.875C1.53542 9.79167 1.775 9.66667 2 9.5C2.225 9.66667 2.46458 9.78958 2.71875 9.86875C2.97292 9.94792 3.23333 9.9875 3.5 9.9875C3.76667 9.9875 4.025 9.94792 4.275 9.86875C4.525 9.78958 4.76667 9.66667 5 9.5C5.225 9.66667 5.46458 9.78958 5.71875 9.86875C5.97292 9.94792 6.23333 9.9875 6.5 9.9875C6.76667 9.9875 7.025 9.94792 7.275 9.86875C7.525 9.78958 7.76667 9.66667 8 9.5C8.23333 9.66667 8.475 9.79167 8.725 9.875C8.975 9.95833 9.23333 10 9.5 10H10V11H9.5C9.24167 11 8.9875 10.9688 8.7375 10.9062C8.4875 10.8438 8.24167 10.75 8 10.625C7.75833 10.75 7.5125 10.8438 7.2625 10.9062C7.0125 10.9688 6.75833 11 6.5 11C6.24167 11 5.9875 10.9688 5.7375 10.9062C5.4875 10.8438 5.24167 10.75 5 10.625C4.75833 10.75 4.5125 10.8438 4.2625 10.9062C4.0125 10.9688 3.75833 11 3.5 11C3.24167 11 2.9875 10.9688 2.7375 10.9062C2.4875 10.8438 2.24167 10.75 2 10.625C1.75833 10.75 1.5125 10.8438 1.2625 10.9062C1.0125 10.9688 0.758333 11 0.5 11H0Z" fill="#C6C6CC"/>
</svg>
