<svg width="18" height="27" viewBox="0 0 18 27" fill="none" xmlns="http://www.w3.org/2000/svg">
<path d="M2.82732 26.3702L6.58693 7.18508C6.68789 6.67707 6.92907 6.29006 7.31048 6.02403C7.69189 5.75801 8.09012 5.625 8.50518 5.625C8.92825 5.625 9.32088 5.71715 9.68305 5.90144C10.0452 6.08573 10.3353 6.36217 10.5532 6.73076L11.8032 8.73076C12.1943 9.35897 12.7367 9.9419 13.4307 10.4796C14.1246 11.0172 14.9411 11.4247 15.8802 11.7019V9.375H17.3706V26.3702H15.8802V13.6226C14.8321 13.3934 13.8389 12.9947 12.9006 12.4266C11.9623 11.8585 11.1246 11.1338 10.3874 10.2523L9.48112 14.7957L12.1302 17.3197V26.3702H10.2552V18.9303L7.07728 16.2379L4.81526 26.3702H2.82732ZM3.09413 13.9663L0.762422 13.5264C0.509223 13.4719 0.308907 13.3401 0.161474 13.131C0.0140408 12.9219 -0.0324323 12.6843 0.0220542 12.4183L0.959554 7.51201C1.07654 6.93349 1.39064 6.47156 1.90185 6.12621C2.41307 5.78086 2.95793 5.66667 3.53645 5.78366L4.66143 6.01683L3.09413 13.9663ZM10.5677 4.61536C9.93627 4.61536 9.39381 4.3886 8.94028 3.93507C8.48676 3.48155 8.26 2.93908 8.26 2.30768C8.26 1.67627 8.48676 1.13381 8.94028 0.680285C9.39381 0.226761 9.93627 0 10.5677 0C11.1991 0 11.7415 0.226761 12.1951 0.680285C12.6486 1.13381 12.8754 1.67627 12.8754 2.30768C12.8754 2.93908 12.6486 3.48155 12.1951 3.93507C11.7415 4.3886 11.1991 4.61536 10.5677 4.61536Z" fill="#E4C285"/>
</svg>
