<svg width="25" height="27" viewBox="0 0 25 27" fill="none" xmlns="http://www.w3.org/2000/svg">
<path d="M1.53848 14.8677L10.625 1.80293V14.8677H1.53848ZM5.11772 12.9928H8.75V7.77634L5.11772 12.9928ZM13.2452 14.8677C13.4792 14.2684 13.726 13.2736 13.9856 11.8834C14.2452 10.4931 14.375 9.09211 14.375 7.68026C14.375 6.2043 14.2484 4.74477 13.9952 3.30167C13.742 1.85857 13.496 0.758013 13.2572 0C14.488 0.471161 15.6835 1.20113 16.8437 2.18991C18.004 3.17869 19.0392 4.33534 19.9495 5.65985C20.8597 6.98436 21.6025 8.43347 22.1778 10.0072C22.7532 11.5809 23.0649 13.2011 23.1129 14.8677H13.2452ZM15.6899 12.9928H21.0361C20.7059 11.1642 20.0797 9.47311 19.1574 7.91941C18.2352 6.36571 17.1738 5.052 15.9735 3.97827C16.0552 4.56802 16.1217 5.17941 16.173 5.81244C16.2243 6.44546 16.25 7.06807 16.25 7.68026C16.25 8.6434 16.1971 9.57369 16.0913 10.4711C15.9855 11.3686 15.8517 12.2091 15.6899 12.9928ZM8.43748 22.1274C7.73556 22.1274 7.06168 21.9783 6.41585 21.6803C5.77001 21.3822 5.19389 20.9623 4.68748 20.4207C4.44389 20.6771 4.17627 20.9227 3.8846 21.1574C3.59294 21.3922 3.28285 21.5769 2.95433 21.7115C2.25722 21.1859 1.66347 20.5501 1.17309 19.8041C0.682703 19.0581 0.323728 18.246 0.0961609 17.3678H24.2788C24.0512 18.246 23.6923 19.0581 23.2019 19.8041C22.7115 20.5501 22.1177 21.1859 21.4206 21.7115C21.0921 21.5769 20.782 21.3922 20.4904 21.1574C20.1987 20.9227 19.9311 20.6771 19.6875 20.4207C19.1682 20.9623 18.5889 21.3822 17.9495 21.6803C17.3101 21.9783 16.6394 22.1274 15.9375 22.1274C15.2356 22.1274 14.5597 21.9783 13.9098 21.6803C13.26 21.3822 12.6859 20.9583 12.1875 20.4086C11.6891 20.9583 11.115 21.3822 10.4651 21.6803C9.81528 21.9783 9.1394 22.1274 8.43748 22.1274ZM0 26.7427V24.8678H0.937477C1.60414 24.8678 2.25318 24.7636 2.88459 24.5553C3.516 24.3469 4.11696 24.0465 4.68748 23.6538C5.266 24.0465 5.86897 24.3437 6.49637 24.5457C7.12378 24.7476 7.77081 24.8485 8.43748 24.8485C9.10414 24.8485 9.74797 24.7476 10.369 24.5457C10.99 24.3437 11.5961 24.0465 12.1875 23.6538C12.766 24.0465 13.369 24.3437 13.9964 24.5457C14.6238 24.7476 15.2708 24.8485 15.9375 24.8485C16.6041 24.8485 17.25 24.7476 17.875 24.5457C18.5 24.3437 19.1041 24.0465 19.6875 23.6538C20.2788 24.0465 20.885 24.3469 21.506 24.5553C22.127 24.7636 22.7708 24.8678 23.4375 24.8678H24.375V26.7427H23.4375C22.8157 26.7427 22.1923 26.6626 21.5673 26.5023C20.9423 26.3421 20.3157 26.0977 19.6875 25.7692C19.0593 26.0977 18.4327 26.3421 17.8077 26.5023C17.1827 26.6626 16.5593 26.7427 15.9375 26.7427C15.3157 26.7427 14.6923 26.6626 14.0673 26.5023C13.4423 26.3421 12.8157 26.0977 12.1875 25.7692C11.5593 26.0977 10.9327 26.3421 10.3077 26.5023C9.68267 26.6626 9.05927 26.7427 8.43748 26.7427C7.81568 26.7427 7.19229 26.6626 6.56729 26.5023C5.94229 26.3421 5.31568 26.0977 4.68748 25.7692C4.05927 26.0977 3.43267 26.3421 2.80767 26.5023C2.18267 26.6626 1.55927 26.7427 0.937477 26.7427H0Z" fill="#E4C285"/>
</svg>
