<svg width="14" height="22" viewBox="0 0 14 22" fill="none" xmlns="http://www.w3.org/2000/svg">
<path d="M2.3798 21.2499V19.375H6.0096V13.9855C4.21793 13.7019 2.76841 12.8946 1.66105 11.5636C0.553683 10.2327 0 8.66982 0 6.87495V0H13.8941V6.87495C13.8941 8.66982 13.3405 10.2327 12.2331 11.5636C11.1257 12.8946 9.67622 13.7019 7.88455 13.9855V19.375H11.5144V21.2499H2.3798ZM6.94707 12.1875C8.18586 12.1875 9.2668 11.7692 10.1899 10.9327C11.113 10.0961 11.6843 9.05603 11.9038 7.81243H1.99033C2.20988 9.05603 2.78119 10.0961 3.70427 10.9327C4.62735 11.7692 5.70829 12.1875 6.94707 12.1875ZM1.87495 5.93748H12.0192V1.87495H1.87495V5.93748Z" fill="#E4C285"/>
</svg>
